<?xml version="1.0" encoding="UTF-8"?> <svg xmlns="http://www.w3.org/2000/svg" width="159.015" height="20.862" viewBox="0 0 159.015 20.862"><g transform="translate(15.306 2.379)"><path d="M51.792,7.744h-5.8v15.73h2.576V18.349h3.221a5,5,0,0,0,5.16-5.292A5.015,5.015,0,0,0,51.792,7.744ZM54.42,13.08a2.576,2.576,0,0,1-2.627,2.737H48.571v-5.5h3.221A2.588,2.588,0,0,1,54.42,13.08Z" transform="translate(-45.995 -7.546)"></path><path d="M103.1,16.941h6.973V14.365H103.1v-4h7.127V7.809h-9.7V23.518h9.725V20.963H103.1Z" transform="translate(-82.378 -7.589)"></path><path d="M162.571,12.815a4.91,4.91,0,0,0-5.182-5.071h-5.776v15.73h2.532V10.32h3.243a2.509,2.509,0,1,1,0,5.012h-2.762v1.282l5.7,6.859h3.317l-4.91-5.843A4.758,4.758,0,0,0,162.571,12.815Z" transform="translate(-116.467 -7.546)"></path><path d="M211.43,13.991c-1.838-.172-3.252-.412-3.347-1.784a1.849,1.849,0,0,1,.339-1.314,3.455,3.455,0,0,1,2.665-1.1c1.281-.014,2.693.536,2.98,1.827l.03.136,2.522-.1-.025-.182c-.435-3.093-3.181-4.19-5.4-4.19a6.092,6.092,0,0,0-4.8,2.11,4.3,4.3,0,0,0-.87,3.041h0c.284,3.574,3.743,3.923,5.6,4.111,1.639.164,3.014.382,3.241,1.388a2.322,2.322,0,0,1,.062.492c0,1.446-1.706,2.341-3.287,2.341-1.444,0-3.019-.759-3.156-2.029h-.006l-.026-.394-2.575.051.032.6c.291,2.8,3.158,4.307,5.708,4.307,2.893,0,5.885-1.815,5.885-4.852a5.657,5.657,0,0,0-.114-1.051C216.3,14.923,213.8,14.287,211.43,13.991Z" transform="translate(-152.347 -7.237)"></path><path d="M264.168,7.148l-6.313,15.928h2.757l.041-.107c.373-.984.963-2.432,1.8-4.424h5.3l1.847,4.531h2.733L266.022,7.148Zm2.607,8.975h-3.357l1.7-4.766Z" transform="translate(-187.355 -7.148)"></path><path d="M327.826,7.809h-5.687V23.517h5.687a7.449,7.449,0,0,0,5.8-2.452,8.135,8.135,0,0,0,1.936-5.392,8.171,8.171,0,0,0-1.935-5.4A7.439,7.439,0,0,0,327.826,7.809Zm5.2,7.865a5.03,5.03,0,0,1-5.2,5.289h-3.133v-10.6h3.133A5.034,5.034,0,0,1,333.027,15.674Z" transform="translate(-230.247 -7.589)"></path><path d="M397.418,9.529a7.947,7.947,0,0,0-11.344,0h0a8.08,8.08,0,0,0,0,11.362,7.947,7.947,0,0,0,11.347,0,8.079,8.079,0,0,0,0-11.363Zm-.24,5.683a5.466,5.466,0,0,1-5.443,5.487,5.48,5.48,0,0,1-3.819-9.352,5.383,5.383,0,0,1,3.819-1.622,5.466,5.466,0,0,1,5.443,5.487Z" transform="translate(-271.348 -7.148)"></path></g><path d="M0,20.862H6.718V18.286H2.58V2.576H6.718V0H0Z" fill="#e20017"></path><g transform="translate(152.297 0)"><path d="M464.382,20.862h-6.718V18.286H461.8V2.576h-4.137V0h6.718Z" transform="translate(-457.664 0)" fill="#e20017"></path></g></svg> 